<svg viewbox="0 0 127 45" id="logo-text" xmlns="http://www.w3.org/2000/svg">
  <defs>
    <linearGradient id="animated-gradient" x1="50%" y1="0%" x2="50%" y2="100%">

        <stop offset="5%" stop-color="#FF5722">
            <animate attributeName="stop-color" values="#FF5722; #3F51B5; #FF5722" dur="6s" repeatCount="indefinite"></animate>
        </stop>
        <stop offset="100%" stop-color="#3F51B5">
            <animate attributeName="stop-color" values="#3F51B5; #FF5722; #3F51B5" dur="6s" repeatCount="indefinite"></animate>
        </stop>
    </linearGradient>
  </defs>
  <path fill="url(#animated-gradient)" d="M 10.086 14.401 L 9.796 14.401 C 9.176 14.401 8.779 14.514 8.606 14.741 C 8.439 14.968 8.356 15.328 8.356 15.821 L 8.356 16.181 C 8.456 16.134 8.536 16.071 8.596 15.991 L 10.466 17.861 C 10.373 18.614 10.103 19.181 9.656 19.561 C 9.209 19.948 8.679 20.141 8.066 20.141 C 7.459 20.141 6.836 19.924 6.196 19.491 C 5.556 19.924 4.933 20.141 4.326 20.141 C 3.459 20.141 2.666 19.738 1.946 18.931 C 1.226 18.124 0.813 17.288 0.706 16.421 L 1.376 15.991 C 1.456 16.131 1.633 16.201 1.906 16.201 C 2.173 16.201 2.383 16.094 2.536 15.881 C 2.689 15.668 2.779 15.454 2.806 15.241 C 2.826 15.034 2.836 14.754 2.836 14.401 L 2.576 14.401 L 1.376 12.961 L 1.376 11.211 C 2.029 11.211 2.493 11.234 2.766 11.281 L 2.766 6.721 L 2.096 6.721 L 0.896 5.281 L 0.896 1.901 L 9.506 1.901 C 11.699 1.901 13.419 2.534 14.666 3.801 C 15.919 5.061 16.546 6.668 16.546 8.621 C 16.546 10.574 15.936 12.021 14.716 12.961 C 15.243 13.781 15.506 14.741 15.506 15.841 L 15.506 16.181 C 15.619 16.134 15.709 16.071 15.776 15.991 L 16.426 16.421 L 17.626 17.861 C 17.546 18.661 17.249 19.241 16.736 19.601 C 16.223 19.961 15.423 20.141 14.336 20.141 C 13.249 20.141 12.269 19.674 11.396 18.741 C 10.523 17.801 10.086 16.604 10.086 15.151 Z M 11.386 12.001 C 11.573 11.894 11.773 11.704 11.986 11.431 C 12.146 11.431 12.256 11.438 12.316 11.451 C 13.856 10.751 14.626 9.288 14.626 7.061 C 14.626 6.274 14.493 5.598 14.226 5.031 C 13.959 4.464 13.646 4.024 13.286 3.711 C 12.926 3.398 12.406 3.131 11.726 2.911 C 11.046 2.684 10.253 2.571 9.346 2.571 L 1.566 2.571 L 1.566 4.611 L 3.486 4.611 L 3.486 11.481 C 3.726 11.608 3.933 11.781 4.106 12.001 C 4.266 11.908 4.459 11.718 4.686 11.431 L 5.306 11.431 C 5.519 11.718 5.719 11.908 5.906 12.001 C 6.259 11.541 6.766 11.288 7.426 11.241 C 7.666 11.221 8.119 11.211 8.786 11.211 C 9.459 11.211 9.989 11.254 10.376 11.341 C 10.756 11.434 11.093 11.654 11.386 12.001 Z M 7.996 11.791 C 7.709 11.791 7.489 11.801 7.336 11.821 C 7.183 11.848 6.986 11.948 6.746 12.121 C 6.506 12.301 6.293 12.568 6.106 12.921 C 5.706 12.841 5.336 12.561 4.996 12.081 C 4.663 12.508 4.296 12.788 3.896 12.921 C 3.703 12.568 3.486 12.301 3.246 12.121 C 3.006 11.948 2.809 11.848 2.656 11.821 C 2.503 11.801 2.293 11.791 2.026 11.791 L 2.026 12.391 C 3.046 12.391 3.556 13.061 3.556 14.401 C 3.556 14.901 3.529 15.308 3.476 15.621 C 3.416 15.928 3.259 16.214 3.006 16.481 C 2.753 16.748 2.386 16.881 1.906 16.881 L 1.546 16.781 C 1.866 17.581 2.369 17.981 3.056 17.981 C 3.743 17.981 4.366 17.734 4.926 17.241 L 5.066 17.241 C 5.626 17.734 6.246 17.981 6.926 17.981 C 7.606 17.981 8.123 17.581 8.476 16.781 C 8.396 16.848 8.219 16.881 7.946 16.881 C 7.679 16.881 7.429 16.811 7.196 16.671 C 6.963 16.538 6.799 16.341 6.706 16.081 C 6.546 15.654 6.466 15.094 6.466 14.401 C 6.466 13.061 6.976 12.391 7.996 12.391 L 9.246 12.391 C 10.286 12.391 10.806 13.061 10.806 14.401 L 10.806 15.031 C 10.806 16.998 11.639 17.981 13.306 17.981 C 14.153 17.981 14.743 17.838 15.076 17.551 C 15.396 17.291 15.579 17.034 15.626 16.781 C 15.533 16.848 15.413 16.881 15.266 16.881 C 14.613 16.881 14.183 16.654 13.976 16.201 C 13.769 15.754 13.666 15.124 13.666 14.311 C 13.666 13.124 13.193 12.381 12.246 12.081 C 11.939 12.508 11.586 12.788 11.186 12.921 C 10.979 12.568 10.756 12.301 10.516 12.121 C 10.276 11.948 10.076 11.848 9.916 11.821 C 9.756 11.801 9.533 11.791 9.246 11.791 Z M 6.556 10.521 L 6.556 4.611 L 8.066 4.611 C 10.359 4.611 11.506 5.501 11.506 7.281 C 11.506 8.221 11.229 8.994 10.676 9.601 C 10.123 10.214 9.263 10.521 8.096 10.521 Z M 9.196 6.701 L 8.426 6.701 L 8.426 9.821 C 10.026 9.694 10.826 8.848 10.826 7.281 L 10.806 6.921 C 10.499 6.774 9.963 6.701 9.196 6.701 Z M 20.976 5.241 L 20.976 1.901 L 32.736 1.901 L 33.936 3.341 L 33.936 6.681 L 32.686 6.681 L 33.576 11.241 C 33.723 11.221 33.946 11.211 34.246 11.211 L 35.446 12.651 L 35.736 14.381 C 34.876 14.381 34.446 14.764 34.446 15.531 C 34.446 15.998 34.5 16.231 34.606 16.231 C 34.88 16.231 35.033 16.151 35.066 15.991 L 35.836 16.441 L 37.036 17.881 C 37.036 18.654 36.846 19.224 36.466 19.591 C 36.093 19.958 35.613 20.141 35.026 20.141 C 34.446 20.141 33.78 19.941 33.026 19.541 C 32.433 19.941 31.856 20.141 31.296 20.141 C 30.416 20.141 29.59 19.748 28.816 18.961 C 28.036 18.181 27.513 17.341 27.246 16.441 L 27.816 15.991 C 27.943 16.151 28.126 16.231 28.366 16.231 C 28.9 16.231 29.166 15.918 29.166 15.291 L 29.086 14.741 C 28.786 14.581 28.416 14.501 27.976 14.501 C 27.536 14.501 27.116 14.628 26.716 14.881 C 26.316 15.141 26.043 15.511 25.896 15.991 L 26.476 16.441 L 27.676 17.881 C 27.45 18.634 27.076 19.201 26.556 19.581 C 26.036 19.954 25.486 20.141 24.906 20.141 C 24.32 20.141 23.706 19.941 23.066 19.541 C 22.346 19.941 21.683 20.141 21.076 20.141 C 20.243 20.141 19.51 19.741 18.876 18.941 C 18.243 18.141 17.926 17.308 17.926 16.441 L 18.676 15.991 C 18.71 16.151 18.866 16.231 19.146 16.231 C 19.426 16.231 19.696 16.038 19.956 15.651 C 20.223 15.271 20.386 14.848 20.446 14.381 L 19.176 12.941 L 19.466 11.211 C 20.153 11.211 20.673 11.261 21.026 11.361 L 21.986 6.461 Z M 29.886 12.031 C 30.026 11.918 30.186 11.718 30.366 11.431 L 30.986 11.431 C 31.24 11.731 31.473 11.931 31.686 12.031 C 31.746 11.918 31.873 11.781 32.066 11.621 L 30.696 4.541 L 32.066 4.541 L 32.066 2.571 L 21.646 2.571 L 21.646 4.541 L 23.016 4.541 L 21.626 11.621 C 21.82 11.768 21.963 11.904 22.056 12.031 C 22.25 11.918 22.473 11.718 22.726 11.431 L 23.356 11.431 C 23.483 11.731 23.62 11.931 23.766 12.031 C 24.373 11.424 25.4 11.121 26.846 11.121 C 28.293 11.121 29.306 11.424 29.886 12.031 Z M 31.756 17.241 C 32.456 17.781 33.133 18.051 33.786 18.051 C 34.433 18.051 34.86 17.634 35.066 16.801 C 34.986 16.868 34.873 16.901 34.726 16.901 C 34.12 16.901 33.606 16.601 33.186 16.001 C 32.76 15.401 32.546 14.828 32.546 14.281 C 32.546 13.148 32.986 12.518 33.866 12.391 L 33.766 11.811 C 33.466 11.811 33.24 11.824 33.086 11.851 C 32.933 11.871 32.753 11.968 32.546 12.141 C 32.34 12.308 32.163 12.568 32.016 12.921 C 31.65 12.854 31.233 12.581 30.766 12.101 C 30.66 12.308 30.53 12.481 30.376 12.621 C 30.223 12.754 30.05 12.854 29.856 12.921 C 29.236 12.148 28.23 11.761 26.836 11.761 C 25.443 11.761 24.45 12.148 23.856 12.921 C 23.49 12.854 23.18 12.581 22.926 12.101 C 22.54 12.514 22.14 12.788 21.726 12.921 C 21.58 12.568 21.4 12.308 21.186 12.141 C 20.966 11.968 20.776 11.871 20.616 11.851 C 20.456 11.824 20.233 11.811 19.946 11.811 L 19.846 12.391 C 20.3 12.451 20.633 12.638 20.846 12.951 C 21.06 13.264 21.166 13.701 21.166 14.261 C 21.166 14.821 20.956 15.401 20.536 16.001 C 20.11 16.601 19.6 16.901 19.006 16.901 L 18.676 16.801 C 18.883 17.634 19.303 18.051 19.936 18.051 C 20.57 18.051 21.246 17.781 21.966 17.241 L 22.106 17.241 C 22.653 17.781 23.196 18.051 23.736 18.051 C 24.456 18.051 25.08 17.634 25.606 16.801 C 25.48 16.868 25.336 16.901 25.176 16.901 C 24.283 16.901 23.836 16.438 23.836 15.511 C 23.836 14.584 24.14 13.851 24.746 13.311 C 25.353 12.778 26.056 12.511 26.856 12.511 C 27.656 12.511 28.36 12.778 28.966 13.311 C 29.58 13.851 29.886 14.584 29.886 15.511 C 29.886 16.438 29.436 16.901 28.536 16.901 L 28.086 16.801 C 28.593 17.634 29.223 18.051 29.976 18.051 C 30.536 18.051 31.08 17.781 31.606 17.241 Z M 29.086 10.541 L 24.676 10.541 L 25.966 4.541 L 27.746 4.541 Z M 28.276 9.921 L 27.626 7.061 L 27.006 9.921 Z M 46.966 3.341 L 46.966 6.721 L 45.526 6.721 L 45.526 11.211 L 45.716 11.211 L 46.916 12.651 L 46.916 14.401 C 46.296 14.401 45.893 14.514 45.706 14.741 C 45.52 14.968 45.426 15.328 45.426 15.821 L 45.426 16.181 C 45.54 16.181 45.636 16.118 45.716 15.991 L 46.386 16.421 L 47.586 17.861 C 47.493 18.614 47.223 19.181 46.776 19.561 C 46.33 19.948 45.79 20.141 45.156 20.141 C 44.523 20.141 43.903 19.924 43.296 19.491 C 42.69 19.924 42.06 20.141 41.406 20.141 C 40.76 20.141 40.02 19.758 39.186 18.991 C 38.36 18.224 37.896 17.368 37.796 16.421 L 38.466 15.991 C 38.533 16.131 38.686 16.201 38.926 16.201 C 39.613 16.201 39.956 15.601 39.956 14.401 L 39.666 14.401 L 38.466 12.961 L 38.466 11.211 C 39.126 11.211 39.593 11.234 39.866 11.281 L 39.866 6.721 L 39.666 6.721 L 38.466 5.281 L 38.466 1.901 L 45.766 1.901 Z M 41.206 12.001 C 41.366 11.908 41.56 11.718 41.786 11.431 L 42.406 11.431 C 42.613 11.718 42.806 11.908 42.986 12.001 C 43.146 11.781 43.353 11.608 43.606 11.481 L 43.606 4.611 L 45.096 4.611 L 45.096 2.571 L 39.146 2.571 L 39.146 4.611 L 40.586 4.611 L 40.586 11.481 C 40.806 11.588 41.013 11.761 41.206 12.001 Z M 42.166 17.241 C 42.74 17.734 43.376 17.981 44.076 17.981 C 44.77 17.981 45.276 17.581 45.596 16.781 C 45.483 16.848 45.356 16.881 45.216 16.881 C 44.096 16.881 43.536 16.054 43.536 14.401 C 43.536 13.061 44.063 12.391 45.116 12.391 L 45.116 11.791 C 44.816 11.791 44.586 11.801 44.426 11.821 C 44.266 11.848 44.066 11.948 43.826 12.121 C 43.586 12.301 43.37 12.568 43.176 12.921 C 42.79 12.841 42.43 12.561 42.096 12.081 C 41.756 12.508 41.396 12.788 41.016 12.921 C 40.81 12.568 40.586 12.301 40.346 12.121 C 40.106 11.948 39.906 11.848 39.746 11.821 C 39.586 11.801 39.36 11.791 39.066 11.791 L 39.066 12.391 C 40.126 12.391 40.656 13.061 40.656 14.401 C 40.656 15.621 40.4 16.381 39.886 16.681 C 39.646 16.814 39.343 16.881 38.976 16.881 L 38.586 16.781 C 38.906 17.581 39.416 17.981 40.116 17.981 C 40.81 17.981 41.446 17.734 42.026 17.241 Z M 63.216 19.421 C 63.003 19.514 62.866 19.754 62.806 20.141 C 62.066 20.141 61.25 19.758 60.356 18.991 C 59.923 18.624 59.56 18.101 59.266 17.421 C 58.966 16.741 58.816 15.984 58.816 15.151 L 58.816 14.401 L 58.536 14.401 L 57.716 13.421 L 57.716 14.401 C 57.09 14.401 56.686 14.514 56.506 14.741 C 56.32 14.968 56.226 15.328 56.226 15.821 L 56.226 16.181 C 56.34 16.181 56.436 16.118 56.516 15.991 L 57.186 16.421 L 58.386 17.861 C 58.293 18.614 58.023 19.181 57.576 19.561 C 57.123 19.948 56.583 20.141 55.956 20.141 C 55.323 20.141 54.703 19.924 54.096 19.491 C 53.483 19.924 52.853 20.141 52.206 20.141 C 51.56 20.141 50.82 19.758 49.986 18.991 C 49.153 18.224 48.69 17.368 48.596 16.421 L 49.266 15.991 C 49.333 16.131 49.486 16.201 49.726 16.201 C 50.413 16.201 50.756 15.601 50.756 14.401 L 50.466 14.401 L 49.266 12.961 L 49.266 11.211 C 49.906 11.211 50.356 11.228 50.616 11.261 L 50.616 6.721 L 50.416 6.721 L 49.216 5.281 L 49.216 1.901 L 54.836 1.901 L 60.216 8.311 L 60.216 6.721 L 59.946 6.721 L 58.746 5.281 L 58.746 1.901 L 66.046 1.901 L 67.246 3.341 L 67.246 6.721 L 65.806 6.721 L 65.806 11.211 L 66.016 11.211 L 67.216 12.651 L 67.216 14.401 C 66.596 14.401 66.196 14.514 66.016 14.741 C 65.843 14.968 65.756 15.328 65.756 15.821 L 65.756 16.181 C 65.87 16.148 65.956 16.084 66.016 15.991 L 67.896 17.861 C 67.796 18.614 67.52 19.181 67.066 19.561 C 66.606 19.948 66.136 20.141 65.656 20.141 C 65.176 20.141 64.713 20.074 64.266 19.941 C 63.82 19.801 63.47 19.628 63.216 19.421 Z M 52.006 12.001 C 52.166 11.908 52.356 11.718 52.576 11.431 L 53.206 11.431 C 53.413 11.718 53.603 11.908 53.776 12.001 C 53.956 11.781 54.173 11.608 54.426 11.481 L 54.426 6.891 L 55.096 6.891 L 58.606 11.261 C 59.26 11.341 59.756 11.588 60.096 12.001 C 60.256 11.908 60.446 11.718 60.666 11.431 L 62.656 11.431 C 62.87 11.718 63.07 11.908 63.256 12.001 C 63.47 11.781 63.68 11.614 63.886 11.501 L 63.886 4.611 L 65.376 4.611 L 65.376 2.571 L 59.416 2.571 L 59.416 4.611 L 60.856 4.611 L 60.856 9.651 L 60.046 9.651 L 54.096 2.571 L 49.896 2.571 L 49.896 4.611 L 51.336 4.611 L 51.336 11.451 C 51.59 11.578 51.813 11.761 52.006 12.001 Z M 64.246 17.981 C 65.026 17.981 65.57 17.581 65.876 16.781 C 65.783 16.848 65.663 16.881 65.516 16.881 C 65.036 16.881 64.663 16.748 64.396 16.481 C 64.136 16.214 63.976 15.928 63.916 15.621 C 63.863 15.308 63.836 14.901 63.836 14.401 C 63.836 13.061 64.356 12.391 65.396 12.391 L 65.396 11.791 C 65.11 11.791 64.89 11.801 64.736 11.821 C 64.583 11.848 64.383 11.948 64.136 12.121 C 63.89 12.301 63.663 12.568 63.456 12.921 C 63.07 12.841 62.71 12.561 62.376 12.081 L 60.956 12.081 C 60.623 12.528 60.263 12.808 59.876 12.921 C 59.67 12.568 59.446 12.301 59.206 12.121 C 58.966 11.948 58.77 11.848 58.616 11.821 C 58.463 11.801 58.243 11.791 57.956 11.791 L 57.956 12.391 C 58.983 12.391 59.496 13.061 59.496 14.401 L 59.496 15.031 C 59.496 16.278 59.903 17.164 60.716 17.691 C 60.876 17.791 61.02 17.854 61.146 17.881 C 61.273 17.434 61.536 17.211 61.936 17.211 C 62.21 17.438 62.586 17.621 63.066 17.761 C 63.546 17.908 63.94 17.981 64.246 17.981 Z M 52.966 17.241 C 53.54 17.734 54.176 17.981 54.876 17.981 C 55.57 17.981 56.076 17.581 56.396 16.781 C 56.283 16.848 56.156 16.881 56.016 16.881 C 54.896 16.881 54.336 16.054 54.336 14.401 C 54.336 13.061 54.863 12.391 55.916 12.391 L 55.916 11.791 C 55.61 11.791 55.376 11.801 55.216 11.821 C 55.056 11.848 54.856 11.948 54.616 12.121 C 54.376 12.301 54.163 12.568 53.976 12.921 C 53.59 12.841 53.23 12.561 52.896 12.081 C 52.556 12.508 52.196 12.788 51.816 12.921 C 51.603 12.568 51.376 12.301 51.136 12.121 C 50.896 11.948 50.696 11.848 50.536 11.821 C 50.376 11.801 50.153 11.791 49.866 11.791 L 49.866 12.391 C 50.926 12.391 51.456 13.061 51.456 14.401 C 51.456 15.621 51.2 16.381 50.686 16.681 C 50.446 16.814 50.143 16.881 49.776 16.881 L 49.386 16.781 C 49.706 17.581 50.216 17.981 50.916 17.981 C 51.61 17.981 52.243 17.734 52.816 17.241 Z M 56.276 9.461 L 56.276 11.211 L 56.516 11.211 L 57.336 12.201 L 57.336 11.211 L 57.666 11.211 Z M 86.298 12.651 L 86.298 14.401 C 85.658 14.401 85.248 14.531 85.068 14.791 C 84.895 15.044 84.808 15.484 84.808 16.111 C 84.808 18.798 82.648 20.141 78.328 20.141 C 77.162 20.141 76.305 20.068 75.758 19.921 C 75.218 19.781 74.715 19.541 74.248 19.201 C 73.655 19.828 72.998 20.141 72.278 20.141 C 71.338 20.141 70.512 19.741 69.798 18.941 C 69.085 18.141 68.665 17.301 68.538 16.421 L 69.188 15.991 C 69.281 16.118 69.455 16.181 69.708 16.181 C 69.968 16.181 70.178 16.081 70.338 15.881 C 70.498 15.681 70.595 15.474 70.628 15.261 C 70.655 15.041 70.668 14.754 70.668 14.401 L 70.388 14.401 L 69.188 12.961 L 69.188 11.211 C 69.888 11.211 70.382 11.234 70.668 11.281 L 70.668 6.721 L 70.408 6.721 L 69.208 5.281 L 69.208 1.901 L 77.898 1.901 C 79.751 1.901 81.235 2.394 82.348 3.381 C 83.461 4.361 84.018 5.804 84.018 7.711 C 84.018 8.784 83.721 9.728 83.128 10.541 C 83.322 10.748 83.522 10.988 83.728 11.261 C 83.982 11.228 84.438 11.211 85.098 11.211 Z M 71.918 12.001 C 72.045 11.921 72.228 11.731 72.468 11.431 L 73.098 11.431 C 73.305 11.718 73.488 11.908 73.648 12.001 C 73.875 11.734 74.121 11.544 74.388 11.431 L 74.388 10.181 L 77.248 10.181 C 78.401 10.181 79.162 10.564 79.528 11.331 C 79.961 11.431 80.322 11.654 80.608 12.001 C 80.768 11.874 80.952 11.684 81.158 11.431 L 81.808 11.431 C 81.982 11.718 82.165 11.908 82.358 12.001 C 82.471 11.841 82.625 11.698 82.818 11.571 C 82.478 10.738 81.805 10.011 80.798 9.391 C 81.698 8.571 82.148 7.538 82.148 6.291 C 82.148 3.811 80.651 2.571 77.658 2.571 L 69.878 2.571 L 69.878 4.611 L 71.388 4.611 L 71.388 11.551 C 71.548 11.631 71.725 11.781 71.918 12.001 Z M 79.908 13.781 C 79.908 15.428 78.978 16.251 77.118 16.251 C 75.251 16.251 74.318 15.428 74.318 13.781 C 74.318 13.494 74.435 13.194 74.668 12.881 C 74.901 12.568 75.281 12.411 75.808 12.411 L 75.808 11.841 C 75.522 11.841 75.298 11.851 75.138 11.871 C 74.978 11.898 74.778 11.994 74.538 12.161 C 74.298 12.328 74.075 12.581 73.868 12.921 C 73.482 12.841 73.121 12.568 72.788 12.101 C 72.468 12.514 72.115 12.788 71.728 12.921 C 71.522 12.581 71.298 12.328 71.058 12.161 C 70.818 11.994 70.618 11.898 70.458 11.871 C 70.298 11.851 70.075 11.841 69.788 11.841 L 69.788 12.411 C 70.808 12.411 71.318 13.074 71.318 14.401 C 71.318 14.914 71.292 15.324 71.238 15.631 C 71.178 15.931 71.025 16.211 70.778 16.471 C 70.531 16.724 70.168 16.851 69.688 16.851 L 69.278 16.801 C 69.665 17.634 70.248 18.051 71.028 18.051 C 71.401 18.051 71.728 17.964 72.008 17.791 C 72.288 17.611 72.602 17.331 72.948 16.951 L 73.148 16.951 C 73.575 17.331 74.058 17.601 74.598 17.761 C 75.132 17.921 75.975 18.001 77.128 18.001 C 81.001 18.001 82.938 16.881 82.938 14.641 C 82.938 13.154 83.448 12.411 84.468 12.411 L 84.468 11.841 C 84.181 11.841 83.961 11.851 83.808 11.871 C 83.662 11.898 83.468 11.994 83.228 12.161 C 82.988 12.328 82.762 12.581 82.548 12.921 C 82.181 12.841 81.832 12.568 81.498 12.101 C 81.178 12.514 80.802 12.788 80.368 12.921 C 80.162 12.581 79.942 12.328 79.708 12.161 C 79.475 11.994 79.281 11.898 79.128 11.871 C 78.982 11.851 78.755 11.841 78.448 11.841 L 78.448 12.411 C 78.975 12.411 79.352 12.564 79.578 12.871 C 79.798 13.171 79.908 13.474 79.908 13.781 Z M 76.238 8.931 L 74.388 8.931 L 74.388 4.611 L 76.238 4.611 C 77.311 4.611 78.035 4.764 78.408 5.071 C 78.788 5.371 78.978 5.921 78.978 6.721 C 78.978 8.194 78.065 8.931 76.238 8.931 Z M 77.828 12.961 L 77.828 12.271 L 77.298 12.271 L 77.628 12.651 L 77.628 14.401 C 76.688 14.434 76.218 14.748 76.218 15.341 L 76.218 15.461 C 76.471 15.528 76.775 15.561 77.128 15.561 C 78.295 15.561 78.982 15.174 79.188 14.401 L 79.028 14.401 Z M 76.268 6.701 L 76.268 8.281 C 77.242 8.281 77.841 8.091 78.068 7.711 C 78.228 7.438 78.308 7.118 78.308 6.751 C 78.288 6.718 77.998 6.701 77.438 6.701 Z M 95.873 20.431 C 93.566 20.431 91.676 19.881 90.203 18.781 C 88.729 17.688 87.993 16.318 87.993 14.671 L 87.993 14.401 L 87.753 14.401 L 86.553 12.961 L 86.553 11.211 C 87.259 11.211 87.749 11.234 88.023 11.281 L 88.023 5.961 C 88.023 5.128 88.226 4.411 88.633 3.811 C 89.039 3.211 89.586 2.758 90.273 2.451 C 91.539 1.891 93.006 1.611 94.673 1.611 C 97.006 1.611 98.896 2.144 100.343 3.211 C 101.789 4.271 102.513 5.668 102.513 7.401 L 102.513 11.211 L 102.783 11.211 L 103.983 12.651 L 103.983 14.401 C 103.376 14.401 102.983 14.514 102.803 14.741 C 102.629 14.968 102.543 15.321 102.543 15.801 L 102.543 16.111 C 102.543 16.944 102.339 17.654 101.933 18.241 C 101.519 18.834 100.963 19.284 100.263 19.591 C 98.983 20.151 97.519 20.431 95.873 20.431 Z M 89.273 12.001 C 89.459 11.894 89.659 11.704 89.873 11.431 L 90.473 11.431 C 90.679 11.718 90.869 11.908 91.043 12.001 C 91.329 11.668 91.659 11.454 92.033 11.361 L 92.033 6.631 C 92.033 5.811 92.279 5.174 92.773 4.721 C 93.266 4.268 93.906 4.041 94.693 4.041 C 95.479 4.041 96.113 4.264 96.593 4.711 C 97.073 5.158 97.313 5.798 97.313 6.631 L 97.313 11.361 C 97.679 11.454 98.006 11.668 98.293 12.001 C 98.453 11.908 98.646 11.718 98.873 11.431 L 99.473 11.431 C 99.679 11.718 99.879 11.908 100.073 12.001 C 100.233 11.794 100.416 11.634 100.623 11.521 L 100.623 6.001 C 100.623 5.334 100.446 4.751 100.093 4.251 C 99.739 3.758 99.266 3.374 98.673 3.101 C 98.086 2.828 97.456 2.628 96.783 2.501 C 96.109 2.374 95.406 2.311 94.673 2.311 C 93.933 2.311 93.233 2.374 92.573 2.501 C 91.906 2.628 91.273 2.828 90.673 3.101 C 90.073 3.374 89.596 3.758 89.243 4.251 C 88.889 4.751 88.713 5.334 88.713 6.001 L 88.713 11.521 C 88.939 11.668 89.126 11.828 89.273 12.001 Z M 91.883 17.961 C 92.729 18.168 93.659 18.271 94.673 18.271 C 95.679 18.271 96.606 18.168 97.453 17.961 C 98.299 17.748 99.039 17.358 99.673 16.791 C 100.306 16.224 100.623 15.508 100.623 14.641 L 100.623 14.401 C 100.623 13.074 101.143 12.411 102.183 12.411 L 102.183 11.841 C 101.896 11.841 101.676 11.851 101.523 11.871 C 101.369 11.898 101.169 11.994 100.923 12.161 C 100.676 12.328 100.446 12.581 100.233 12.921 C 99.886 12.841 99.536 12.568 99.183 12.101 C 98.896 12.514 98.526 12.788 98.073 12.921 C 97.886 12.581 97.673 12.328 97.433 12.161 C 97.193 11.994 96.993 11.898 96.833 11.871 C 96.673 11.851 96.446 11.841 96.153 11.841 L 96.153 12.411 C 96.686 12.411 97.063 12.564 97.283 12.871 C 97.509 13.171 97.623 13.474 97.623 13.781 C 97.623 14.648 97.343 15.324 96.783 15.811 C 96.223 16.298 95.519 16.541 94.673 16.541 C 93.819 16.541 93.113 16.298 92.553 15.811 C 91.993 15.324 91.713 14.648 91.713 13.781 C 91.713 13.474 91.826 13.171 92.053 12.871 C 92.279 12.564 92.656 12.411 93.183 12.411 L 93.183 11.841 C 92.896 11.841 92.673 11.851 92.513 11.871 C 92.353 11.898 92.153 11.994 91.913 12.161 C 91.673 12.328 91.456 12.581 91.263 12.921 C 90.843 12.841 90.473 12.568 90.153 12.101 C 89.833 12.514 89.483 12.788 89.103 12.921 C 88.896 12.581 88.666 12.328 88.413 12.161 C 88.166 11.994 87.966 11.898 87.813 11.871 C 87.666 11.851 87.446 11.841 87.153 11.841 L 87.153 12.411 C 88.193 12.411 88.713 13.074 88.713 14.401 L 88.713 14.641 C 88.713 15.508 89.029 16.224 89.663 16.791 C 90.296 17.358 91.036 17.748 91.883 17.961 Z M 93.923 8.091 L 93.923 11.331 L 95.033 12.651 L 95.033 14.401 C 94.759 14.421 94.543 14.441 94.383 14.461 C 94.223 14.488 94.049 14.574 93.863 14.721 C 93.683 14.861 93.593 15.068 93.593 15.341 C 93.593 15.674 93.913 15.841 94.553 15.841 C 95.193 15.841 95.706 15.711 96.093 15.451 C 96.486 15.184 96.746 14.834 96.873 14.401 L 96.713 14.401 L 95.513 12.961 L 95.513 11.211 C 96.019 11.211 96.386 11.221 96.613 11.241 L 96.613 6.651 C 96.613 6.524 96.526 6.418 96.353 6.331 C 96.173 6.244 96.013 6.201 95.873 6.201 C 95.279 6.201 94.806 6.364 94.453 6.691 C 94.099 7.018 93.923 7.484 93.923 8.091 Z M 112.159 3.341 L 112.159 6.721 L 110.939 6.721 L 111.899 11.401 L 112.639 12.321 L 112.639 11.211 L 113.339 11.211 L 114.509 5.841 L 116.189 5.841 L 117.389 7.281 L 118.429 11.791 L 118.859 12.321 L 118.859 11.211 L 119.669 11.211 L 120.659 6.461 L 119.669 5.281 L 119.669 1.901 L 126.349 1.901 L 127.549 3.341 L 127.549 6.721 L 125.989 6.721 L 124.789 12.121 L 125.239 12.651 L 125.239 14.381 C 124.632 14.394 124.152 14.674 123.799 15.221 C 123.446 15.768 123.269 16.368 123.269 17.021 C 123.269 17.868 123.582 18.341 124.209 18.441 L 124.209 20.141 C 123.342 20.141 122.739 20.101 122.399 20.021 C 122.052 19.941 121.752 19.741 121.499 19.421 C 121.339 19.514 121.146 19.778 120.919 20.211 L 120.829 20.431 L 118.039 20.431 L 116.839 18.991 L 116.359 18.101 L 115.069 20.431 L 112.259 20.431 C 111.939 19.871 111.689 19.534 111.509 19.421 C 111.242 19.754 110.942 19.958 110.609 20.031 C 110.282 20.104 109.719 20.141 108.919 20.141 L 107.719 18.701 L 107.719 17.001 C 108.312 16.888 108.609 16.414 108.609 15.581 C 108.609 15.194 108.552 14.834 108.439 14.501 L 107.819 14.381 L 106.619 12.941 L 106.619 11.211 L 107.169 11.211 L 106.159 6.721 L 105.489 6.721 L 104.289 5.281 L 104.289 1.901 L 110.959 1.901 Z M 117.389 11.841 L 116.509 11.841 C 116.202 12.241 115.826 12.591 115.379 12.891 C 114.946 12.604 114.562 12.254 114.229 11.841 L 113.289 11.841 L 113.289 12.321 C 113.402 12.401 113.509 12.548 113.609 12.761 C 113.716 12.974 113.769 13.231 113.769 13.531 C 113.769 13.824 113.566 14.288 113.159 14.921 C 112.752 15.554 112.436 15.934 112.209 16.061 C 112.002 15.914 111.699 15.531 111.299 14.911 C 110.899 14.284 110.699 13.748 110.699 13.301 C 110.699 12.854 110.859 12.528 111.179 12.321 L 111.179 11.841 L 110.219 11.841 C 109.946 12.188 109.586 12.538 109.139 12.891 C 108.706 12.138 108.072 11.761 107.239 11.761 L 107.239 12.361 C 107.832 12.441 108.322 12.821 108.709 13.501 C 109.089 14.181 109.279 14.868 109.279 15.561 C 109.279 16.648 108.959 17.254 108.319 17.381 L 108.319 18.101 C 109.072 18.101 109.616 17.948 109.949 17.641 C 110.129 17.501 110.299 17.301 110.459 17.041 C 110.839 17.474 111.199 17.924 111.539 18.391 L 113.459 18.391 L 115.069 15.631 L 115.739 15.631 L 117.199 18.391 L 119.149 18.391 L 120.149 17.041 C 120.469 17.554 120.839 17.868 121.259 17.981 C 121.612 18.061 121.979 18.101 122.359 18.101 L 122.359 17.381 C 121.706 17.254 121.379 16.648 121.379 15.561 C 121.379 14.868 121.576 14.181 121.969 13.501 C 122.356 12.821 122.856 12.441 123.469 12.361 L 123.469 11.761 C 122.636 11.761 121.979 12.138 121.499 12.891 C 121.112 12.604 120.742 12.254 120.389 11.841 L 119.479 11.841 L 119.479 12.321 C 119.819 12.541 119.989 12.874 119.989 13.321 C 119.989 13.774 119.789 14.311 119.389 14.931 C 118.989 15.558 118.676 15.934 118.449 16.061 C 118.242 15.934 117.939 15.554 117.539 14.921 C 117.139 14.288 116.939 13.741 116.939 13.281 C 116.939 12.814 117.089 12.494 117.389 12.321 Z M 109.209 11.981 C 109.369 11.854 109.602 11.598 109.909 11.211 L 110.269 11.211 L 108.949 4.611 L 110.289 4.611 L 110.289 2.571 L 104.959 2.571 L 104.959 4.611 L 106.399 4.611 L 107.889 11.261 C 108.449 11.341 108.889 11.581 109.209 11.981 Z M 124.229 4.611 L 125.669 4.611 L 125.669 2.571 L 120.349 2.571 L 120.349 4.611 L 121.689 4.611 L 120.349 11.211 L 120.679 11.211 C 120.999 11.631 121.256 11.888 121.449 11.981 C 121.769 11.568 122.192 11.328 122.719 11.261 Z M 115.379 12.081 C 115.539 11.981 115.826 11.691 116.239 11.211 L 116.769 11.211 L 115.689 6.481 L 115.019 6.481 L 113.989 11.211 L 114.559 11.211 C 114.946 11.691 115.219 11.981 115.379 12.081 Z M 10.087 39.39 L 9.797 39.39 C 9.177 39.39 8.78 39.503 8.607 39.73 C 8.44 39.957 8.357 40.317 8.357 40.81 L 8.357 41.17 C 8.457 41.123 8.537 41.06 8.597 40.98 L 10.467 42.85 C 10.374 43.603 10.104 44.17 9.657 44.55 C 9.21 44.937 8.68 45.13 8.067 45.13 C 7.46 45.13 6.837 44.913 6.197 44.48 C 5.557 44.913 4.934 45.13 4.327 45.13 C 3.46 45.13 2.667 44.727 1.947 43.92 C 1.227 43.113 0.814 42.277 0.707 41.41 L 1.377 40.98 C 1.457 41.12 1.634 41.19 1.907 41.19 C 2.174 41.19 2.384 41.083 2.537 40.87 C 2.69 40.657 2.78 40.443 2.807 40.23 C 2.827 40.023 2.837 39.743 2.837 39.39 L 2.577 39.39 L 1.377 37.95 L 1.377 36.2 C 2.03 36.2 2.494 36.223 2.767 36.27 L 2.767 31.71 L 2.097 31.71 L 0.897 30.27 L 0.897 26.89 L 9.507 26.89 C 11.7 26.89 13.42 27.523 14.667 28.79 C 15.92 30.05 16.547 31.657 16.547 33.61 C 16.547 35.563 15.937 37.01 14.717 37.95 C 15.244 38.77 15.507 39.73 15.507 40.83 L 15.507 41.17 C 15.62 41.123 15.71 41.06 15.777 40.98 L 16.427 41.41 L 17.627 42.85 C 17.547 43.65 17.25 44.23 16.737 44.59 C 16.224 44.95 15.424 45.13 14.337 45.13 C 13.25 45.13 12.27 44.663 11.397 43.73 C 10.524 42.79 10.087 41.593 10.087 40.14 Z M 11.387 36.99 C 11.574 36.883 11.774 36.693 11.987 36.42 C 12.147 36.42 12.257 36.427 12.317 36.44 C 13.857 35.74 14.627 34.277 14.627 32.05 C 14.627 31.263 14.494 30.587 14.227 30.02 C 13.96 29.453 13.647 29.013 13.287 28.7 C 12.927 28.387 12.407 28.12 11.727 27.9 C 11.047 27.673 10.254 27.56 9.347 27.56 L 1.567 27.56 L 1.567 29.6 L 3.487 29.6 L 3.487 36.47 C 3.727 36.597 3.934 36.77 4.107 36.99 C 4.267 36.897 4.46 36.707 4.687 36.42 L 5.307 36.42 C 5.52 36.707 5.72 36.897 5.907 36.99 C 6.26 36.53 6.767 36.277 7.427 36.23 C 7.667 36.21 8.12 36.2 8.787 36.2 C 9.46 36.2 9.99 36.243 10.377 36.33 C 10.757 36.423 11.094 36.643 11.387 36.99 Z M 7.997 36.78 C 7.71 36.78 7.49 36.79 7.337 36.81 C 7.184 36.837 6.987 36.937 6.747 37.11 C 6.507 37.29 6.294 37.557 6.107 37.91 C 5.707 37.83 5.337 37.55 4.997 37.07 C 4.664 37.497 4.297 37.777 3.897 37.91 C 3.704 37.557 3.487 37.29 3.247 37.11 C 3.007 36.937 2.81 36.837 2.657 36.81 C 2.504 36.79 2.294 36.78 2.027 36.78 L 2.027 37.38 C 3.047 37.38 3.557 38.05 3.557 39.39 C 3.557 39.89 3.53 40.297 3.477 40.61 C 3.417 40.917 3.26 41.203 3.007 41.47 C 2.754 41.737 2.387 41.87 1.907 41.87 L 1.547 41.77 C 1.867 42.57 2.37 42.97 3.057 42.97 C 3.744 42.97 4.367 42.723 4.927 42.23 L 5.067 42.23 C 5.627 42.723 6.247 42.97 6.927 42.97 C 7.607 42.97 8.124 42.57 8.477 41.77 C 8.397 41.837 8.22 41.87 7.947 41.87 C 7.68 41.87 7.43 41.8 7.197 41.66 C 6.964 41.527 6.8 41.33 6.707 41.07 C 6.547 40.643 6.467 40.083 6.467 39.39 C 6.467 38.05 6.977 37.38 7.997 37.38 L 9.247 37.38 C 10.287 37.38 10.807 38.05 10.807 39.39 L 10.807 40.02 C 10.807 41.987 11.64 42.97 13.307 42.97 C 14.154 42.97 14.744 42.827 15.077 42.54 C 15.397 42.28 15.58 42.023 15.627 41.77 C 15.534 41.837 15.414 41.87 15.267 41.87 C 14.614 41.87 14.184 41.643 13.977 41.19 C 13.77 40.743 13.667 40.113 13.667 39.3 C 13.667 38.113 13.194 37.37 12.247 37.07 C 11.94 37.497 11.587 37.777 11.187 37.91 C 10.98 37.557 10.757 37.29 10.517 37.11 C 10.277 36.937 10.077 36.837 9.917 36.81 C 9.757 36.79 9.534 36.78 9.247 36.78 Z M 6.557 35.51 L 6.557 29.6 L 8.067 29.6 C 10.36 29.6 11.507 30.49 11.507 32.27 C 11.507 33.21 11.23 33.983 10.677 34.59 C 10.124 35.203 9.264 35.51 8.097 35.51 Z M 9.197 31.69 L 8.427 31.69 L 8.427 34.81 C 10.027 34.683 10.827 33.837 10.827 32.27 L 10.807 31.91 C 10.5 31.763 9.964 31.69 9.197 31.69 Z M 19.087 37.95 L 19.087 36.2 C 19.741 36.2 20.204 36.223 20.477 36.27 L 20.477 31.71 L 20.287 31.71 L 19.087 30.27 L 19.087 26.89 L 26.377 26.89 L 27.577 28.33 L 27.577 31.71 L 26.137 31.71 L 26.137 33.15 L 29.927 33.15 L 29.927 31.71 L 29.737 31.71 L 28.537 30.27 L 28.537 26.89 L 35.837 26.89 L 37.037 28.33 L 37.037 31.71 L 35.597 31.71 L 35.597 36.2 L 35.787 36.2 L 36.987 37.64 L 36.987 39.39 C 36.361 39.39 35.957 39.503 35.777 39.73 C 35.591 39.957 35.497 40.317 35.497 40.81 L 35.497 41.17 C 35.611 41.17 35.707 41.107 35.787 40.98 L 36.457 41.41 L 37.657 42.85 C 37.564 43.603 37.294 44.17 36.847 44.55 C 36.394 44.937 35.854 45.13 35.227 45.13 C 34.594 45.13 33.974 44.913 33.367 44.48 C 32.754 44.913 32.124 45.13 31.477 45.13 C 30.831 45.13 30.091 44.747 29.257 43.98 C 28.424 43.213 27.961 42.357 27.867 41.41 L 28.537 40.98 C 28.604 41.12 28.757 41.19 28.997 41.19 C 29.684 41.19 30.027 40.59 30.027 39.39 L 29.737 39.39 L 28.537 37.95 L 28.537 37.33 L 27.267 37.33 L 27.527 37.64 L 27.527 39.39 C 26.907 39.39 26.504 39.503 26.317 39.73 C 26.137 39.957 26.047 40.317 26.047 40.81 L 26.047 41.17 C 26.154 41.17 26.247 41.107 26.327 40.98 L 27.007 41.41 L 28.207 42.85 C 28.107 43.603 27.834 44.17 27.387 44.55 C 26.941 44.937 26.401 45.13 25.767 45.13 C 25.134 45.13 24.514 44.913 23.907 44.48 C 23.301 44.913 22.674 45.13 22.027 45.13 C 21.374 45.13 20.634 44.747 19.807 43.98 C 18.974 43.213 18.507 42.357 18.407 41.41 L 19.087 40.98 C 19.147 41.12 19.297 41.19 19.537 41.19 C 20.224 41.19 20.567 40.59 20.567 39.39 L 20.287 39.39 Z M 21.817 36.99 C 21.977 36.897 22.171 36.707 22.397 36.42 L 23.017 36.42 C 23.224 36.707 23.417 36.897 23.597 36.99 C 23.757 36.77 23.964 36.597 24.217 36.47 L 24.217 35.24 L 30.647 35.24 L 30.647 36.47 C 30.874 36.577 31.084 36.75 31.277 36.99 C 31.437 36.897 31.627 36.707 31.847 36.42 L 32.477 36.42 C 32.684 36.707 32.874 36.897 33.047 36.99 C 33.207 36.77 33.417 36.597 33.677 36.47 L 33.677 29.6 L 35.167 29.6 L 35.167 27.56 L 29.207 27.56 L 29.207 29.6 L 30.647 29.6 L 30.647 33.8 L 24.217 33.8 L 24.217 29.6 L 25.707 29.6 L 25.707 27.56 L 19.757 27.56 L 19.757 29.6 L 21.197 29.6 L 21.197 36.47 C 21.417 36.577 21.624 36.75 21.817 36.99 Z M 32.237 42.23 C 32.811 42.723 33.447 42.97 34.147 42.97 C 34.841 42.97 35.347 42.57 35.667 41.77 C 35.554 41.837 35.427 41.87 35.287 41.87 C 34.167 41.87 33.607 41.043 33.607 39.39 C 33.607 38.05 34.134 37.38 35.187 37.38 L 35.187 36.78 C 34.881 36.78 34.647 36.79 34.487 36.81 C 34.327 36.837 34.127 36.937 33.887 37.11 C 33.647 37.29 33.434 37.557 33.247 37.91 C 32.861 37.83 32.501 37.55 32.167 37.07 C 31.827 37.497 31.467 37.777 31.087 37.91 C 30.874 37.557 30.647 37.29 30.407 37.11 C 30.167 36.937 29.967 36.837 29.807 36.81 C 29.647 36.79 29.424 36.78 29.137 36.78 L 29.137 37.38 C 30.197 37.38 30.727 38.05 30.727 39.39 C 30.727 40.61 30.471 41.37 29.957 41.67 C 29.717 41.803 29.414 41.87 29.047 41.87 L 28.657 41.77 C 28.977 42.57 29.487 42.97 30.187 42.97 C 30.881 42.97 31.514 42.723 32.087 42.23 Z M 22.777 42.23 C 23.357 42.723 23.994 42.97 24.687 42.97 C 25.381 42.97 25.887 42.57 26.207 41.77 C 26.101 41.837 25.974 41.87 25.827 41.87 C 24.707 41.87 24.147 41.043 24.147 39.39 C 24.147 38.05 24.674 37.38 25.727 37.38 L 25.727 36.78 C 25.427 36.78 25.197 36.79 25.037 36.81 C 24.877 36.837 24.677 36.937 24.437 37.11 C 24.197 37.29 23.981 37.557 23.787 37.91 C 23.401 37.83 23.041 37.55 22.707 37.07 C 22.374 37.497 22.014 37.777 21.627 37.91 C 21.421 37.557 21.197 37.29 20.957 37.11 C 20.717 36.937 20.517 36.837 20.357 36.81 C 20.197 36.79 19.974 36.78 19.687 36.78 L 19.687 37.38 C 20.741 37.38 21.267 38.05 21.267 39.39 C 21.267 40.61 21.011 41.37 20.497 41.67 C 20.257 41.803 19.954 41.87 19.587 41.87 L 19.207 41.77 C 19.527 42.57 20.034 42.97 20.727 42.97 C 21.421 42.97 22.057 42.723 22.637 42.23 Z M 48.143 28.33 L 48.143 31.71 L 46.703 31.71 L 46.703 36.2 L 46.893 36.2 L 48.093 37.64 L 48.093 39.39 C 47.473 39.39 47.07 39.503 46.883 39.73 C 46.697 39.957 46.603 40.317 46.603 40.81 L 46.603 41.17 C 46.717 41.17 46.813 41.107 46.893 40.98 L 47.563 41.41 L 48.763 42.85 C 48.67 43.603 48.4 44.17 47.953 44.55 C 47.507 44.937 46.967 45.13 46.333 45.13 C 45.7 45.13 45.08 44.913 44.473 44.48 C 43.867 44.913 43.237 45.13 42.583 45.13 C 41.937 45.13 41.197 44.747 40.363 43.98 C 39.537 43.213 39.073 42.357 38.973 41.41 L 39.643 40.98 C 39.71 41.12 39.863 41.19 40.103 41.19 C 40.79 41.19 41.133 40.59 41.133 39.39 L 40.843 39.39 L 39.643 37.95 L 39.643 36.2 C 40.303 36.2 40.77 36.223 41.043 36.27 L 41.043 31.71 L 40.843 31.71 L 39.643 30.27 L 39.643 26.89 L 46.943 26.89 Z M 42.383 36.99 C 42.543 36.897 42.737 36.707 42.963 36.42 L 43.583 36.42 C 43.79 36.707 43.983 36.897 44.163 36.99 C 44.323 36.77 44.53 36.597 44.783 36.47 L 44.783 29.6 L 46.273 29.6 L 46.273 27.56 L 40.323 27.56 L 40.323 29.6 L 41.763 29.6 L 41.763 36.47 C 41.983 36.577 42.19 36.75 42.383 36.99 Z M 43.343 42.23 C 43.917 42.723 44.553 42.97 45.253 42.97 C 45.947 42.97 46.453 42.57 46.773 41.77 C 46.66 41.837 46.533 41.87 46.393 41.87 C 45.273 41.87 44.713 41.043 44.713 39.39 C 44.713 38.05 45.24 37.38 46.293 37.38 L 46.293 36.78 C 45.993 36.78 45.763 36.79 45.603 36.81 C 45.443 36.837 45.243 36.937 45.003 37.11 C 44.763 37.29 44.547 37.557 44.353 37.91 C 43.967 37.83 43.607 37.55 43.273 37.07 C 42.933 37.497 42.573 37.777 42.193 37.91 C 41.987 37.557 41.763 37.29 41.523 37.11 C 41.283 36.937 41.083 36.837 40.923 36.81 C 40.763 36.79 40.537 36.78 40.243 36.78 L 40.243 37.38 C 41.303 37.38 41.833 38.05 41.833 39.39 C 41.833 40.61 41.577 41.37 41.063 41.67 C 40.823 41.803 40.52 41.87 40.153 41.87 L 39.763 41.77 C 40.083 42.57 40.593 42.97 41.293 42.97 C 41.987 42.97 42.623 42.723 43.203 42.23 Z M 64.393 44.41 C 64.18 44.503 64.043 44.743 63.983 45.13 C 63.243 45.13 62.426 44.747 61.533 43.98 C 61.1 43.613 60.736 43.09 60.443 42.41 C 60.143 41.73 59.993 40.973 59.993 40.14 L 59.993 39.39 L 59.713 39.39 L 58.893 38.41 L 58.893 39.39 C 58.266 39.39 57.863 39.503 57.683 39.73 C 57.496 39.957 57.403 40.317 57.403 40.81 L 57.403 41.17 C 57.516 41.17 57.613 41.107 57.693 40.98 L 58.363 41.41 L 59.563 42.85 C 59.47 43.603 59.2 44.17 58.753 44.55 C 58.3 44.937 57.76 45.13 57.133 45.13 C 56.5 45.13 55.88 44.913 55.273 44.48 C 54.66 44.913 54.03 45.13 53.383 45.13 C 52.736 45.13 51.996 44.747 51.163 43.98 C 50.33 43.213 49.866 42.357 49.773 41.41 L 50.443 40.98 C 50.51 41.12 50.663 41.19 50.903 41.19 C 51.59 41.19 51.933 40.59 51.933 39.39 L 51.643 39.39 L 50.443 37.95 L 50.443 36.2 C 51.083 36.2 51.533 36.217 51.793 36.25 L 51.793 31.71 L 51.593 31.71 L 50.393 30.27 L 50.393 26.89 L 56.013 26.89 L 61.393 33.3 L 61.393 31.71 L 61.123 31.71 L 59.923 30.27 L 59.923 26.89 L 67.223 26.89 L 68.423 28.33 L 68.423 31.71 L 66.983 31.71 L 66.983 36.2 L 67.193 36.2 L 68.393 37.64 L 68.393 39.39 C 67.773 39.39 67.373 39.503 67.193 39.73 C 67.02 39.957 66.933 40.317 66.933 40.81 L 66.933 41.17 C 67.046 41.137 67.133 41.073 67.193 40.98 L 69.073 42.85 C 68.973 43.603 68.696 44.17 68.243 44.55 C 67.783 44.937 67.313 45.13 66.833 45.13 C 66.353 45.13 65.89 45.063 65.443 44.93 C 64.996 44.79 64.646 44.617 64.393 44.41 Z M 53.183 36.99 C 53.343 36.897 53.533 36.707 53.753 36.42 L 54.383 36.42 C 54.59 36.707 54.78 36.897 54.953 36.99 C 55.133 36.77 55.35 36.597 55.603 36.47 L 55.603 31.88 L 56.273 31.88 L 59.783 36.25 C 60.436 36.33 60.933 36.577 61.273 36.99 C 61.433 36.897 61.623 36.707 61.843 36.42 L 63.833 36.42 C 64.046 36.707 64.246 36.897 64.433 36.99 C 64.646 36.77 64.856 36.603 65.063 36.49 L 65.063 29.6 L 66.553 29.6 L 66.553 27.56 L 60.593 27.56 L 60.593 29.6 L 62.033 29.6 L 62.033 34.64 L 61.223 34.64 L 55.273 27.56 L 51.073 27.56 L 51.073 29.6 L 52.513 29.6 L 52.513 36.44 C 52.766 36.567 52.99 36.75 53.183 36.99 Z M 65.423 42.97 C 66.203 42.97 66.746 42.57 67.053 41.77 C 66.96 41.837 66.84 41.87 66.693 41.87 C 66.213 41.87 65.84 41.737 65.573 41.47 C 65.313 41.203 65.153 40.917 65.093 40.61 C 65.04 40.297 65.013 39.89 65.013 39.39 C 65.013 38.05 65.533 37.38 66.573 37.38 L 66.573 36.78 C 66.286 36.78 66.066 36.79 65.913 36.81 C 65.76 36.837 65.56 36.937 65.313 37.11 C 65.066 37.29 64.84 37.557 64.633 37.91 C 64.246 37.83 63.886 37.55 63.553 37.07 L 62.133 37.07 C 61.8 37.517 61.44 37.797 61.053 37.91 C 60.846 37.557 60.623 37.29 60.383 37.11 C 60.143 36.937 59.946 36.837 59.793 36.81 C 59.64 36.79 59.42 36.78 59.133 36.78 L 59.133 37.38 C 60.16 37.38 60.673 38.05 60.673 39.39 L 60.673 40.02 C 60.673 41.267 61.08 42.153 61.893 42.68 C 62.053 42.78 62.196 42.843 62.323 42.87 C 62.45 42.423 62.713 42.2 63.113 42.2 C 63.386 42.427 63.763 42.61 64.243 42.75 C 64.723 42.897 65.116 42.97 65.423 42.97 Z M 54.143 42.23 C 54.716 42.723 55.353 42.97 56.053 42.97 C 56.746 42.97 57.253 42.57 57.573 41.77 C 57.46 41.837 57.333 41.87 57.193 41.87 C 56.073 41.87 55.513 41.043 55.513 39.39 C 55.513 38.05 56.04 37.38 57.093 37.38 L 57.093 36.78 C 56.786 36.78 56.553 36.79 56.393 36.81 C 56.233 36.837 56.033 36.937 55.793 37.11 C 55.553 37.29 55.34 37.557 55.153 37.91 C 54.766 37.83 54.406 37.55 54.073 37.07 C 53.733 37.497 53.373 37.777 52.993 37.91 C 52.78 37.557 52.553 37.29 52.313 37.11 C 52.073 36.937 51.873 36.837 51.713 36.81 C 51.553 36.79 51.33 36.78 51.043 36.78 L 51.043 37.38 C 52.103 37.38 52.633 38.05 52.633 39.39 C 52.633 40.61 52.376 41.37 51.863 41.67 C 51.623 41.803 51.32 41.87 50.953 41.87 L 50.563 41.77 C 50.883 42.57 51.393 42.97 52.093 42.97 C 52.786 42.97 53.42 42.723 53.993 42.23 Z M 57.453 34.45 L 57.453 36.2 L 57.693 36.2 L 58.513 37.19 L 58.513 36.2 L 58.843 36.2 Z M 79.005 45.42 C 76.698 45.42 74.808 44.87 73.335 43.77 C 71.862 42.677 71.125 41.307 71.125 39.66 L 71.125 39.39 L 70.885 39.39 L 69.685 37.95 L 69.685 36.2 C 70.392 36.2 70.882 36.223 71.155 36.27 L 71.155 30.95 C 71.155 30.117 71.358 29.4 71.765 28.8 C 72.172 28.2 72.718 27.747 73.405 27.44 C 74.672 26.88 76.138 26.6 77.805 26.6 C 80.138 26.6 82.028 27.133 83.475 28.2 C 84.922 29.26 85.645 30.657 85.645 32.39 L 85.645 36.2 L 85.915 36.2 L 87.115 37.64 L 87.115 39.39 C 86.508 39.39 86.115 39.503 85.935 39.73 C 85.762 39.957 85.675 40.31 85.675 40.79 L 85.675 41.1 C 85.675 41.933 85.472 42.643 85.065 43.23 C 84.652 43.823 84.095 44.273 83.395 44.58 C 82.115 45.14 80.652 45.42 79.005 45.42 Z M 72.405 36.99 C 72.592 36.883 72.792 36.693 73.005 36.42 L 73.605 36.42 C 73.812 36.707 74.002 36.897 74.175 36.99 C 74.462 36.657 74.792 36.443 75.165 36.35 L 75.165 31.62 C 75.165 30.8 75.412 30.163 75.905 29.71 C 76.398 29.257 77.038 29.03 77.825 29.03 C 78.612 29.03 79.245 29.253 79.725 29.7 C 80.205 30.147 80.445 30.787 80.445 31.62 L 80.445 36.35 C 80.812 36.443 81.138 36.657 81.425 36.99 C 81.585 36.897 81.778 36.707 82.005 36.42 L 82.605 36.42 C 82.812 36.707 83.012 36.897 83.205 36.99 C 83.365 36.783 83.548 36.623 83.755 36.51 L 83.755 30.99 C 83.755 30.323 83.578 29.74 83.225 29.24 C 82.872 28.747 82.398 28.363 81.805 28.09 C 81.218 27.817 80.588 27.617 79.915 27.49 C 79.242 27.363 78.538 27.3 77.805 27.3 C 77.065 27.3 76.365 27.363 75.705 27.49 C 75.038 27.617 74.405 27.817 73.805 28.09 C 73.205 28.363 72.728 28.747 72.375 29.24 C 72.022 29.74 71.845 30.323 71.845 30.99 L 71.845 36.51 C 72.072 36.657 72.258 36.817 72.405 36.99 Z M 75.015 42.95 C 75.862 43.157 76.792 43.26 77.805 43.26 C 78.812 43.26 79.738 43.157 80.585 42.95 C 81.432 42.737 82.172 42.347 82.805 41.78 C 83.438 41.213 83.755 40.497 83.755 39.63 L 83.755 39.39 C 83.755 38.063 84.275 37.4 85.315 37.4 L 85.315 36.83 C 85.028 36.83 84.808 36.84 84.655 36.86 C 84.502 36.887 84.302 36.983 84.055 37.15 C 83.808 37.317 83.578 37.57 83.365 37.91 C 83.018 37.83 82.668 37.557 82.315 37.09 C 82.028 37.503 81.658 37.777 81.205 37.91 C 81.018 37.57 80.805 37.317 80.565 37.15 C 80.325 36.983 80.125 36.887 79.965 36.86 C 79.805 36.84 79.578 36.83 79.285 36.83 L 79.285 37.4 C 79.818 37.4 80.195 37.553 80.415 37.86 C 80.642 38.16 80.755 38.463 80.755 38.77 C 80.755 39.637 80.475 40.313 79.915 40.8 C 79.355 41.287 78.652 41.53 77.805 41.53 C 76.952 41.53 76.245 41.287 75.685 40.8 C 75.125 40.313 74.845 39.637 74.845 38.77 C 74.845 38.463 74.958 38.16 75.185 37.86 C 75.412 37.553 75.788 37.4 76.315 37.4 L 76.315 36.83 C 76.028 36.83 75.805 36.84 75.645 36.86 C 75.485 36.887 75.285 36.983 75.045 37.15 C 74.805 37.317 74.588 37.57 74.395 37.91 C 73.975 37.83 73.605 37.557 73.285 37.09 C 72.965 37.503 72.615 37.777 72.235 37.91 C 72.028 37.57 71.798 37.317 71.545 37.15 C 71.298 36.983 71.098 36.887 70.945 36.86 C 70.798 36.84 70.578 36.83 70.285 36.83 L 70.285 37.4 C 71.325 37.4 71.845 38.063 71.845 39.39 L 71.845 39.63 C 71.845 40.497 72.162 41.213 72.795 41.78 C 73.428 42.347 74.168 42.737 75.015 42.95 Z M 77.055 33.08 L 77.055 36.32 L 78.165 37.64 L 78.165 39.39 C 77.892 39.41 77.675 39.43 77.515 39.45 C 77.355 39.477 77.182 39.563 76.995 39.71 C 76.815 39.85 76.725 40.057 76.725 40.33 C 76.725 40.663 77.045 40.83 77.685 40.83 C 78.325 40.83 78.838 40.7 79.225 40.44 C 79.618 40.173 79.878 39.823 80.005 39.39 L 79.845 39.39 L 78.645 37.95 L 78.645 36.2 C 79.152 36.2 79.518 36.21 79.745 36.23 L 79.745 31.64 C 79.745 31.513 79.658 31.407 79.485 31.32 C 79.305 31.233 79.145 31.19 79.005 31.19 C 78.412 31.19 77.938 31.353 77.585 31.68 C 77.232 32.007 77.055 32.473 77.055 33.08 Z"  white-space: pre;"/>
</svg>